<?xml version="1.0" encoding="UTF-8"?>
<svg version="1.1" xmlns="http://www.w3.org/2000/svg" width="530" height="668">
<path d="M0 0 C2.61078949 2.34612986 5.18732119 4.72631849 7.74707031 7.12792969 C9.84487161 9.07544074 11.96735554 10.92849754 14.17675781 12.74511719 C17.25427234 15.34916794 19.83105247 18.24718488 22.43457031 21.31933594 C24.57302076 23.79976531 26.81060784 26.16968264 29.05175781 28.55761719 C63.44360158 66.43547235 84.42357705 116.19922288 91.36425781 166.55761719 C91.48140137 167.40146973 91.59854492 168.24532227 91.71923828 169.11474609 C98.60349898 221.35533954 89.32726399 277.29162912 64.31005859 323.77929688 C63.35828963 325.56883872 62.44961245 327.37524092 61.54785156 329.19042969 C50.84549253 350.43688737 35.83143485 369.49308185 19.36425781 386.55761719 C18.79771484 387.14607422 18.23117187 387.73453125 17.64746094 388.34082031 C10.2769073 395.95570169 2.75220495 403.05487012 -5.63574219 409.55761719 C-7.07240234 410.71970703 -7.07240234 410.71970703 -8.53808594 411.90527344 C-62.40289906 454.7661777 -132.84947685 473.30521887 -200.91699219 466.24511719 C-218.22434574 464.25631049 -234.97890294 460.63075037 -251.63574219 455.55761719 C-252.84182129 455.19724365 -252.84182129 455.19724365 -254.07226562 454.82958984 C-302.28373823 440.14745685 -349.27794166 407.82816891 -379.63574219 367.55761719 C-380.35793945 366.60145508 -380.35793945 366.60145508 -381.09472656 365.62597656 C-389.31345711 354.67777831 -396.76418904 343.39490842 -403.63574219 331.55761719 C-404.16627197 330.66139648 -404.16627197 330.66139648 -404.70751953 329.74707031 C-438.33651299 272.54665864 -444.83774754 199.14438193 -428.63574219 135.55761719 C-424.13398733 118.56712306 -418.21336722 102.41211529 -410.63574219 86.55761719 C-410.24161133 85.73213379 -409.84748047 84.90665039 -409.44140625 84.05615234 C-398.61657707 61.75303843 -384.14275023 41.36144194 -367.19824219 23.30761719 C-364.8903215 20.83082425 -362.6624801 18.30532977 -360.44824219 15.74511719 C-357.4876344 12.40922109 -354.40814525 9.42273453 -350.99902344 6.54980469 C-349.17911783 5.01566938 -347.3931928 3.46052834 -345.61621094 1.87792969 C-332.39615743 -9.81264272 -318.02868544 -19.82247832 -302.63574219 -28.44238281 C-301.86810547 -28.87405762 -301.10046875 -29.30573242 -300.30957031 -29.75048828 C-215.22322584 -77.11970417 -106.84828298 -73.34015558 0 0 Z M-274.63574219 51.55761719 C-275.65796875 52.275625 -276.68019531 52.99363281 -277.73339844 53.73339844 C-285.19961648 59.15724458 -291.98566556 65.18516512 -298.63574219 71.55761719 C-299.14137695 72.03602051 -299.64701172 72.51442383 -300.16796875 73.00732422 C-332.39540897 103.60804603 -352.68392492 148.82657682 -354.02246094 193.25683594 C-354.74210534 224.89614198 -349.58651137 253.99175649 -335.63574219 282.55761719 C-335.28640625 283.28078125 -334.93707031 284.00394531 -334.57714844 284.74902344 C-329.31289227 295.52821463 -323.10584263 305.17903999 -315.63574219 314.55761719 C-314.95874268 315.40815674 -314.95874268 315.40815674 -314.26806641 316.27587891 C-283.59404903 354.40009005 -240.11748057 378.01544064 -191.59545898 384.16723633 C-185.04814173 384.81272374 -178.52233554 384.90718672 -171.94824219 384.87011719 C-171.25264191 384.86796204 -170.55704163 384.86580688 -169.84036255 384.86358643 C-158.22166651 384.80615113 -147.00215386 384.07569366 -135.63574219 381.55761719 C-134.270625 381.25960205 -134.270625 381.25960205 -132.87792969 380.95556641 C-98.4614954 373.21534744 -69.34507828 356.5309531 -43.63574219 332.55761719 C-42.52585937 331.52894531 -42.52585937 331.52894531 -41.39355469 330.47949219 C-13.63967803 303.81206621 3.51921545 266.24090027 9.36425781 228.55761719 C9.46665771 227.89963135 9.56905762 227.24164551 9.67456055 226.5637207 C16.06107872 178.4037503 2.46831911 130.10338531 -26.63574219 91.55761719 C-27.30863281 90.65785156 -27.98152344 89.75808594 -28.67480469 88.83105469 C-57.62634872 51.83120498 -99.65808458 28.81641276 -145.69824219 21.24511719 C-190.90028309 15.9368872 -237.11075656 25.08868226 -274.63574219 51.55761719 Z " fill="#FDFDFD" transform="translate(436.6357421875,62.4423828125)"/>
<path d="M0 0 C50.59386493 20.32056016 93.82130435 32.0902365 145.96704102 9.87915039 C159.81885106 3.77731469 173.26209988 -3.19031006 186.09375 -11.21875 C195.76401125 -17.22581317 206.04912665 -20.93460759 217.42578125 -18.74609375 C228.76531254 -15.83718173 237.26562922 -8.65823196 243.47265625 1.16015625 C246.82169174 7.38836254 248.6837805 13.84816828 249.96875 20.78125 C250.12085938 21.53792969 250.27296875 22.29460938 250.4296875 23.07421875 C250.65625 25.09375 250.65625 25.09375 249.96875 28.78125 C245.03773498 34.31233563 238.42686639 38.41962763 232.28125 42.46875 C231.36843262 43.07106445 230.45561523 43.67337891 229.51513672 44.29394531 C195.26702338 66.64831324 158.65562398 80.95010127 117.96875 85.78125 C117.16308594 85.87768799 116.35742188 85.97412598 115.52734375 86.07348633 C107.1036337 86.96256776 98.6787141 86.98099882 90.21875 86.96875 C89.44796112 86.96814575 88.67717224 86.9675415 87.88302612 86.96691895 C50.18860168 86.88697422 18.55619626 78.54524936 -15.96875 63.78125 C-69.02105453 41.11668801 -115.81265491 35.77944771 -172.03125 49.78125 C-172.86543457 49.98862793 -173.69961914 50.19600586 -174.55908203 50.40966797 C-176.38367468 50.86471553 -178.20756331 51.32258512 -180.03125 51.78125 C-182.70607386 34.08442431 -183.98004129 17.62562131 -174.03125 1.78125 C-164.19866786 -11.19775842 -146.3587653 -17.83767613 -130.78515625 -20.32421875 C-83.8820627 -26.65750639 -43.28686582 -17.40686247 0 0 Z " fill="#FDFDFD" transform="translate(188.03125,581.21875)"/>
</svg>
